HIERARCHY
ROOT Hips
{
	OFFSET 0.000000 0.000000 0.000000
	CHANNELS 6 Xposition Yposition Zposition Zrotation Yrotation Xrotation 
	JOINT LHipJoint
	{
		OFFSET 0.000000 0.000000 0.000000
		CHANNELS 3 Zrotation Yrotation Xrotation
		JOINT LeftUpLeg
		{
			OFFSET 1.363060 -1.794630 0.839290
			CHANNELS 3 Zrotation Yrotation Xrotation
			JOINT LeftLeg
			{
				OFFSET 2.448110 -6.726130 0.000000
				CHANNELS 3 Zrotation Yrotation Xrotation
				JOINT LeftFoot
				{
					OFFSET 2.562200 -7.039590 0.000000
					CHANNELS 3 Zrotation Yrotation Xrotation
					JOINT LeftToeBase
					{
						OFFSET 0.157640 -0.433110 2.322550
						CHANNELS 3 Zrotation Yrotation Xrotation
						End Site
						{
							OFFSET 0.000000 0.000000 0.000000
						}
					}
				}
			}
		}
	}
	JOINT RHipJoint
	{
		OFFSET 0.000000 0.000000 0.000000
		CHANNELS 3 Zrotation Yrotation Xrotation
		JOINT RightUpLeg
		{
			OFFSET -1.305520 -1.794630 0.839290
			CHANNELS 3 Zrotation Yrotation Xrotation
			JOINT RightLeg
			{
				OFFSET -2.542530 -6.985550 0.000000
				CHANNELS 3 Zrotation Yrotation Xrotation
				JOINT RightFoot
				{
					OFFSET -2.568260 -7.056230 0.000000
					CHANNELS 3 Zrotation Yrotation Xrotation
					JOINT RightToeBase
					{
						OFFSET -0.164730 -0.452590 2.363150
						CHANNELS 3 Zrotation Yrotation Xrotation
						End Site
						{
							OFFSET 0.000000 0.000000 0.000000
						}
					}
				}
			}
		}
	}
	JOINT LowerBack
	{
		OFFSET 0.000000 0.000000 0.000000
		CHANNELS 3 Zrotation Yrotation Xrotation
		JOINT Spine
		{
			OFFSET 0.028270 2.035590 -0.193380
			CHANNELS 3 Zrotation Yrotation Xrotation
			JOINT Spine1
			{
				OFFSET 0.056720 2.048850 -0.042750
				CHANNELS 3 Zrotation Yrotation Xrotation
				JOINT Neck
				{
					OFFSET 0.000000 0.000000 0.000000
					CHANNELS 3 Zrotation Yrotation Xrotation
					JOINT Neck1
					{
						OFFSET -0.054170 1.746240 0.172020
						CHANNELS 3 Zrotation Yrotation Xrotation
						JOINT Head
						{
							OFFSET 0.104070 1.761360 -0.123970
							CHANNELS 3 Zrotation Yrotation Xrotation
							End Site
							{
								OFFSET 0.000000 0.000000 0.000000
							}
						}
					}
				}
				JOINT LeftShoulder
				{
					OFFSET 0.000000 0.000000 0.000000
					CHANNELS 3 Zrotation Yrotation Xrotation
					JOINT LeftArm
					{
						OFFSET 3.362410 1.200890 -0.311210
						CHANNELS 3 Zrotation Yrotation Xrotation
						JOINT LeftForeArm
						{
							OFFSET 4.983000 -0.000000 -0.000000
							CHANNELS 3 Zrotation Yrotation Xrotation
							JOINT LeftHand
							{
								OFFSET 3.483560 -0.000000 -0.000000
								CHANNELS 3 Zrotation Yrotation Xrotation
								JOINT LeftFingerBase
								{
									OFFSET 0.000000 0.000000 0.000000
									CHANNELS 3 Zrotation Yrotation Xrotation
									JOINT LeftHandIndex1
									{
										OFFSET 0.715260 -0.000000 -0.000000
										CHANNELS 3 Zrotation Yrotation Xrotation
										End Site
										{
											OFFSET 0.000000 0.000000 0.000000
										}
									}
								}
								JOINT LThumb
								{
									OFFSET 0.000000 0.000000 0.000000
									CHANNELS 3 Zrotation Yrotation Xrotation
									End Site
									{
										OFFSET 0.000000 0.000000 0.000000
									}
								}
							}
						}
					}
				}
				JOINT RightShoulder
				{
					OFFSET 0.000000 0.000000 0.000000
					CHANNELS 3 Zrotation Yrotation Xrotation
					JOINT RightArm
					{
						OFFSET -3.136600 1.374050 -0.404650
						CHANNELS 3 Zrotation Yrotation Xrotation
						JOINT RightForeArm
						{
							OFFSET -5.241900 -0.000000 -0.000000
							CHANNELS 3 Zrotation Yrotation Xrotation
							JOINT RightHand
							{
								OFFSET -3.444170 -0.000000 -0.000000
								CHANNELS 3 Zrotation Yrotation Xrotation
								JOINT RightFingerBase
								{
									OFFSET 0.000000 0.000000 0.000000
									CHANNELS 3 Zrotation Yrotation Xrotation
									JOINT RightHandIndex1
									{
										OFFSET -0.622530 -0.000000 -0.000000
										CHANNELS 3 Zrotation Yrotation Xrotation
										End Site
										{
											OFFSET 0.000000 0.000000 0.000000
										}
									}
								}
								JOINT RThumb
								{
									OFFSET 0.000000 0.000000 0.000000
									CHANNELS 3 Zrotation Yrotation Xrotation
									End Site
									{
										OFFSET 0.000000 0.000000 0.000000
									}
								}
							}
						}
					}
				}
			}
		}
	}
}
MOTION
Frames: 9
Frame Time: 0.008333
20.969173 18.167521 -19.058812 -88.309683 85.209115 -84.081834 2.419711 3.197906 3.987110 -6.655383 -25.121256 -17.636584 6.031784 11.449717 38.649677 4.290651 -3.721117 -40.065924 1.918600 -8.694500 -24.844200 -6.637389 -4.283334 4.226846 30.868262 16.212786 -18.080742 -6.588291 -11.597325 40.004470 -2.298203 13.823605 -33.916880 -0.021000 -0.934700 2.569200 -2.259050 -4.343598 1.459145 -5.938076 -6.087742 26.085267 5.291641 -3.051334 -11.324600 -1.692112 -8.756636 -22.257691 9.004450 -11.735697 45.511662 0.572400 -1.628400 19.917700 4.070236 -6.668946 -0.549910 -88.611805 -22.698425 41.010648 39.879671 -41.406912 -15.923447 1.108434 -0.122570 -24.714905 33.579859 2.492259 2.057600 -7.125000 0.000000 0.000000 4.929400 33.767700 -1.362200 0.362789 10.756145 0.943453 80.658760 -13.187934 40.922881 -48.823712 44.839595 -23.303078 -0.485380 -0.028601 -13.768375 -34.893327 4.619166 -3.101400 7.125000 0.000000 0.000000 -5.791200 -24.488100 -2.883800 
20.930514 18.168358 -18.751586 -82.307417 85.162929 -77.543169 2.368963 3.216970 3.959800 -6.236549 -24.943996 -18.335138 6.033022 11.465315 38.673144 4.311589 -3.477849 -40.124298 1.952800 -8.767000 -25.069100 -6.638551 -4.308449 4.327330 30.780617 16.990232 -19.038903 -6.655816 -11.727474 40.407408 -2.298881 13.375348 -33.760041 -0.018000 -0.867400 2.384100 -2.028189 -4.036126 1.139940 -6.178445 -5.654949 25.860787 5.210648 -2.835189 -11.286466 -1.663961 -8.829493 -22.137146 9.116584 -11.888614 45.434595 0.570900 -1.669100 19.820100 4.038017 -6.683174 -0.546757 -88.831077 -22.465359 41.140363 39.168641 -40.871691 -15.392921 1.089304 -0.123734 -24.583487 33.122132 2.487012 2.009800 -7.125000 0.000000 0.000000 4.566800 33.728900 -1.265700 0.427931 10.780058 0.935681 81.165750 -13.005357 40.395411 -47.628400 44.250547 -22.311159 -0.478426 -0.042928 -13.245289 -34.815821 4.739159 -3.191200 7.125000 0.000000 0.000000 -5.721800 -24.318700 -2.871500 
20.898639 18.174026 -18.453281 -83.202562 85.278032 -78.377806 2.353564 3.214593 3.962420 -6.149417 -25.098389 -18.420937 6.001257 11.426960 38.527664 4.278489 -3.551004 -39.973697 1.863800 -8.576500 -24.479200 -6.630247 -4.360105 4.351537 30.678178 16.709634 -19.496254 -6.697046 -11.778677 40.599428 -2.239369 13.266579 -33.437211 -0.016600 -0.832300 2.287500 -1.942509 -3.940933 1.263415 -6.244026 -5.502308 25.922107 5.176865 -2.759233 -11.389394 -1.681515 -8.875085 -22.017054 9.170994 -11.955163 45.267191 0.571800 -1.698300 19.701200 4.041259 -6.681047 -0.557016 -88.930298 -22.179925 41.171988 38.605581 -40.447730 -14.976556 1.073376 -0.122282 -24.514326 32.662363 2.475282 1.958400 -7.125000 0.000000 0.000000 4.199800 33.682900 -1.168200 0.438699 10.774458 0.910496 81.472545 -12.759166 40.029795 -46.559686 43.706625 -21.431470 -0.470690 -0.059290 -12.829419 -34.720285 4.771166 -3.219400 7.125000 0.000000 0.000000 -5.648300 -24.255300 -2.842600 
20.865556 18.180717 -18.154697 -82.689380 85.271584 -77.724382 2.347773 3.215002 3.958907 -5.960200 -25.414756 -18.488686 5.981903 11.396412 38.403222 4.310798 -3.311904 -40.068781 1.846600 -8.539100 -24.363800 -6.612282 -4.406219 4.388093 30.684216 16.551879 -20.033757 -6.743049 -11.833645 40.779409 -2.239711 12.686717 -33.211708 -0.008100 -0.580200 1.594500 -1.788242 -3.824584 1.304703 -6.246462 -5.330543 25.965183 5.089979 -2.675551 -11.464255 -1.647776 -8.903994 -21.960692 9.175439 -12.001616 45.134309 0.546900 -1.717400 19.610400 4.034560 -6.675503 -0.561786 -88.915850 -21.796285 41.118754 38.219486 -40.151765 -14.689804 1.061131 -0.117883 -24.400965 32.258568 2.575162 1.979600 -7.125000 0.000000 0.000000 3.877700 33.768700 -1.070200 0.442114 10.767068 0.883278 81.747490 -12.439236 39.695875 -45.483368 43.132208 -20.554849 -0.463886 -0.074939 -12.462326 -34.535089 4.929992 -3.320900 7.125000 0.000000 0.000000 -5.496200 -24.047400 -2.791800 
20.833960 18.186665 -17.864291 -81.275022 85.374926 -76.238337 2.372686 3.214330 3.953506 -6.070427 -25.616759 -18.414622 5.949598 11.342379 38.199675 4.329064 -3.210664 -40.122721 1.784200 -8.401300 -23.939700 -6.587960 -4.438578 4.414167 30.491508 16.399500 -20.408459 -6.762177 -11.859022 40.875720 -2.175277 12.762510 -32.936953 -0.012200 -0.714000 1.962200 -1.887911 -3.741799 1.359411 -6.112710 -5.251545 26.045994 5.105858 -2.614269 -11.514685 -1.756087 -8.887892 -21.844821 9.183552 -11.927692 44.990209 0.573900 -1.712100 19.510200 4.021379 -6.674177 -0.572653 -88.957038 -21.473328 40.875147 37.685513 -39.732911 -14.282538 1.048790 -0.111940 -24.316556 32.033314 2.484103 1.897600 -7.125000 0.000000 0.000000 3.696900 33.635900 -1.032000 0.426701 10.772608 0.864929 81.724873 -12.027914 39.625126 -44.582921 42.626863 -19.821955 -0.456995 -0.093847 -12.255540 -34.444539 5.012991 -3.383300 7.125000 0.000000 0.000000 -5.421000 -23.922100 -2.769000 
20.801899 18.191869 -17.569889 -79.747170 85.429954 -74.594667 2.382956 3.215202 3.947198 -6.057254 -25.772956 -18.427330 5.917604 11.291347 38.003346 4.353368 -3.081334 -40.200641 1.743300 -8.309700 -23.658700 -6.572605 -4.472471 4.441838 30.383346 16.290989 -20.810685 -6.778865 -11.878562 40.934502 -2.136208 12.553751 -32.663257 -0.010100 -0.650300 1.787000 -1.871043 -3.626897 1.391043 -6.076302 -5.105088 26.087509 5.082174 -2.530047 -11.567845 -1.805382 -8.904011 -21.748781 9.200370 -11.928394 44.869097 0.579600 -1.723400 19.423600 4.011299 -6.672338 -0.579888 -88.990255 -21.143368 40.739561 37.202428 -39.344934 -13.920897 1.034387 -0.105580 -24.281481 31.683069 2.533690 1.891601 -7.125000 0.000000 0.000000 3.418800 33.663000 -0.951900 0.425658 10.775470 0.844670 81.837329 -11.672881 39.435244 -43.662942 42.091258 -19.084089 -0.450127 -0.110687 -11.986894 -34.334604 5.107144 -3.449000 7.125000 0.000000 0.000000 -5.331100 -23.787400 -2.739400 
20.770581 18.197259 -17.277439 -78.114449 85.484497 -72.872447 2.400419 3.215553 3.941160 -6.093191 -25.923532 -18.385189 5.884783 11.235132 37.788288 4.388820 -2.920973 -40.324628 1.715600 -8.246700 -23.466000 -6.557556 -4.502380 4.463003 30.269685 16.154006 -21.142659 -6.785380 -11.882565 40.938070 -2.093088 12.386815 -32.381759 -0.008300 -0.586700 1.612300 -1.875276 -3.522351 1.436248 -6.018245 -4.977225 26.138171 5.065282 -2.452858 -11.620734 -1.862211 -8.915078 -21.655267 9.202634 -11.914575 44.763550 0.584900 -1.731300 19.347900 4.001697 -6.669361 -0.587004 -89.000306 -20.803590 40.573077 36.746660 -38.971648 -13.578664 1.019562 -0.096902 -24.311101 31.350008 2.635514 1.916700 -7.125000 0.000000 0.000000 3.155400 33.750100 -0.871700 0.419685 10.778122 0.825322 81.887915 -11.296027 39.308727 -42.813537 41.577626 -18.408394 -0.442890 -0.127501 -11.757415 -34.233645 5.144163 -3.476800 7.125000 0.000000 0.000000 -5.253800 -23.721500 -2.707300 
20.739636 18.202556 -16.986289 -75.941859 85.535024 -70.612071 2.422094 3.216356 3.933679 -6.171538 -26.045121 -18.328678 5.854278 11.180088 37.577779 4.434858 -2.748938 -40.497226 1.694900 -8.199500 -23.321500 -6.543029 -4.526763 4.481988 30.135324 16.054354 -21.437169 -6.786272 -11.879729 40.915984 -2.050344 12.253026 -32.113657 -0.006200 -0.509600 1.400400 -1.901947 -3.416386 1.474287 -5.960554 -4.851685 26.178052 5.062297 -2.373968 -11.666527 -1.920772 -8.921409 -21.564493 9.190703 -11.889609 44.683522 0.588700 -1.735900 19.286300 3.991396 -6.665981 -0.592870 -88.994418 -20.457348 40.384273 36.312267 -38.608350 -13.251377 1.003728 -0.085766 -24.424850 31.031235 2.808404 1.982600 -7.125000 0.000000 0.000000 2.904600 33.918300 -0.790400 0.413358 10.782278 0.808380 81.888638 -10.905750 39.234707 -42.031377 41.087387 -17.791157 -0.435563 -0.144017 -11.558993 -34.143911 5.145108 -3.481500 7.125000 0.000000 0.000000 -5.188400 -23.698900 -2.676100 
20.709062 18.207667 -16.696255 -73.382740 85.573710 -67.974371 2.446798 3.217514 3.925279 -6.283705 -26.130255 -18.254111 5.823799 11.123773 37.362368 4.486370 -2.584253 -40.697960 1.675500 -8.154600 -23.184600 -6.531293 -4.545123 4.496810 29.995166 15.983911 -21.675678 -6.778651 -11.865597 40.851835 -2.010166 12.146590 -31.867332 -0.004400 -0.426500 1.172000 -1.934119 -3.310838 1.515237 -5.912589 -4.726904 26.206009 5.066437 -2.294140 -11.711763 -1.972717 -8.925122 -21.471800 9.164981 -11.859529 44.629179 0.588700 -1.738000 19.236700 3.981617 -6.662161 -0.597630 -88.972504 -20.110902 40.188404 35.889069 -38.247385 -12.932342 0.986899 -0.072444 -24.621836 30.733739 3.032511 2.077100 -7.125000 0.000000 0.000000 2.670900 34.144200 -0.712000 0.407799 10.786764 0.793509 81.853127 -10.510426 39.200751 -41.318905 40.626555 -17.233416 -0.428038 -0.159868 -11.381368 -34.071747 5.097827 -3.455800 7.125000 0.000000 0.000000 -5.141000 -23.734100 -2.647300 
